<svg width="230" height="230" viewBox="0 0 230 230" fill="none" xmlns="http://www.w3.org/2000/svg">
<path d="M122.859 127.039C122.859 124.904 122.26 123.211 121.062 121.961C119.891 120.685 117.885 119.513 115.047 118.445C112.208 117.378 109.76 116.323 107.703 115.281C105.646 114.214 103.875 113.003 102.391 111.648C100.932 110.268 99.7865 108.654 98.9531 106.805C98.1458 104.956 97.7422 102.755 97.7422 100.203C97.7422 95.8021 99.1484 92.1953 101.961 89.3828C104.773 86.5703 108.51 84.9297 113.172 84.4609V76.1016H119.422V84.5781C124.031 85.2292 127.638 87.1562 130.242 90.3594C132.846 93.5365 134.148 97.6641 134.148 102.742H122.859C122.859 99.6172 122.208 97.2865 120.906 95.75C119.63 94.1875 117.911 93.4062 115.75 93.4062C113.615 93.4062 111.961 94.0182 110.789 95.2422C109.617 96.4401 109.031 98.1068 109.031 100.242C109.031 102.221 109.604 103.81 110.75 105.008C111.896 106.206 114.018 107.43 117.117 108.68C120.242 109.93 122.807 111.115 124.812 112.234C126.818 113.328 128.51 114.578 129.891 115.984C131.271 117.365 132.326 118.953 133.055 120.75C133.784 122.521 134.148 124.591 134.148 126.961C134.148 131.388 132.768 134.982 130.008 137.742C127.247 140.503 123.445 142.13 118.602 142.625V150.398H112.391V142.664C107.052 142.091 102.911 140.203 99.9688 137C97.0521 133.771 95.5938 129.487 95.5938 124.148H106.883C106.883 127.247 107.612 129.63 109.07 131.297C110.555 132.938 112.677 133.758 115.438 133.758C117.729 133.758 119.539 133.159 120.867 131.961C122.195 130.737 122.859 129.096 122.859 127.039Z" fill="#8844EE"/>
<circle cx="115" cy="115" r="113.5" stroke="#8844EE" stroke-width="3"/>
</svg>
