<svg width="60" height="60" viewBox="0 0 60 60" fill="none" xmlns="http://www.w3.org/2000/svg">
<path d="M30 15C32.7614 15 35 12.7614 35 10C35 7.23858 32.7614 5 30 5C27.2386 5 25 7.23858 25 10C25 12.7614 27.2386 15 30 15Z" fill="#FFF500"/>
<path d="M39.7236 20.275C38.7486 19.3 37.0736 17.5 33.8236 17.5C33.2986 17.5 30.2736 17.5 27.4736 17.5C20.5986 17.475 21.999 17.5 24.9986 11.25L22 9.5C19.5012 13.25 15.2736 19.6 22.4986 21.775V55H27.4986V40H32.4986V55H37.4986V25.125L47.3736 35L50.8986 31.475L39.7236 20.275Z" fill="#FFF500"/>
</svg>
