<svg width="66" height="60" viewBox="0 0 66 60" fill="none" xmlns="http://www.w3.org/2000/svg">
<path d="M32.9552 15C35.9648 15 38.4045 12.7614 38.4045 10C38.4045 7.23858 35.9648 5 32.9552 5C29.9456 5 27.5059 7.23858 27.5059 10C27.5059 12.7614 29.9456 15 32.9552 15Z" fill="#FF0000"/>
<path d="M52.0281 32.5V27.5C47.8321 27.55 43.6089 25.625 40.9387 22.925L37.4239 19.35C36.9607 18.875 36.3885 18.5 35.7619 18.225C35.7346 18.225 35.7346 18.2001 35.7074 18.2001H35.6801C34.7265 17.7001 33.6366 17.45 32.4378 17.55C29.5769 17.775 27.5061 20.1 27.5061 22.725V37.5C27.5061 40.25 29.9583 42.5 32.9555 42.5H46.5788V55H52.0281V41.25C52.0281 38.5 49.5759 36.25 46.5788 36.25H38.4048V27.625C41.9196 30.3 47.26 32.475 52.0281 32.5ZM27.5061 50C22.9832 50 19.3321 46.65 19.3321 42.5C19.3321 39.225 21.6209 36.475 24.7815 35.425V30.25C18.5692 31.4 13.8828 36.45 13.8828 42.5C13.8828 49.4 19.9861 55 27.5061 55C34.0998 55 39.6037 50.7 40.857 45H35.2169C34.0998 47.9 31.0755 50 27.5061 50Z" fill="#FF0000"/>
</svg>
