<svg width="67" height="60" viewBox="0 0 67 60" fill="none" xmlns="http://www.w3.org/2000/svg">
<path d="M33.1294 15C43.5265 15 52.7988 20.325 57.3252 28.75C52.7988 37.175 43.5265 42.5 33.1294 42.5C22.7323 42.5 13.4599 37.175 8.93351 28.75C13.4599 20.325 22.7323 15 33.1294 15ZM33.1294 10C19.4129 10 7.69903 17.775 2.95312 28.75C7.69903 39.725 19.4129 47.5 33.1294 47.5C46.8458 47.5 58.5597 39.725 63.3056 28.75C58.5597 17.775 46.8458 10 33.1294 10ZM33.1294 22.5C36.9151 22.5 39.9876 25.3 39.9876 28.75C39.9876 32.2 36.9151 35 33.1294 35C29.3436 35 26.2711 32.2 26.2711 28.75C26.2711 25.3 29.3436 22.5 33.1294 22.5ZM33.1294 17.5C26.326 17.5 20.7845 22.55 20.7845 28.75C20.7845 34.95 26.326 40 33.1294 40C39.9327 40 45.4742 34.95 45.4742 28.75C45.4742 22.55 39.9327 17.5 33.1294 17.5Z" fill="#0484FD"/>
</svg>
