<svg width="230" viewBox="0 0 284 22" class="logo-header" fill="none" xmlns="http://www.w3.org/2000/svg">
  <path d="M13.0156 16.8984H5.82422L4.45703 21H0.0957031L7.50586 1.09375H11.3066L18.7578 21H14.3965L13.0156 16.8984ZM6.93164 13.5762H11.9082L9.40625 6.125L6.93164 13.5762ZM35.9434 14.3691C35.7884 16.5111 34.9954 18.1973 33.5645 19.4277C32.1426 20.6582 30.265 21.2734 27.9316 21.2734C25.3796 21.2734 23.3698 20.4167 21.9023 18.7031C20.444 16.9805 19.7148 14.6198 19.7148 11.6211V10.4043C19.7148 8.49023 20.0521 6.80404 20.7266 5.3457C21.401 3.88737 22.3626 2.77083 23.6113 1.99609C24.8691 1.21224 26.3275 0.820312 27.9863 0.820312C30.2832 0.820312 32.1335 1.43555 33.5371 2.66602C34.9408 3.89648 35.752 5.6237 35.9707 7.84766H31.8691C31.7689 6.5625 31.4089 5.63281 30.7891 5.05859C30.1784 4.47526 29.2441 4.18359 27.9863 4.18359C26.6191 4.18359 25.5938 4.67578 24.9102 5.66016C24.2357 6.63542 23.8893 8.15299 23.8711 10.2129V11.7168C23.8711 13.8678 24.1947 15.4401 24.8418 16.4336C25.498 17.4271 26.528 17.9238 27.9316 17.9238C29.1986 17.9238 30.1419 17.6367 30.7617 17.0625C31.3906 16.4792 31.7507 15.5814 31.8418 14.3691H35.9434ZM50.6133 12.373H42.7383V17.7051H51.9805V21H38.6367V1.09375H51.9531V4.41602H42.7383V9.16016H50.6133V12.373ZM64.709 15.7773C64.709 15.0026 64.4355 14.4102 63.8887 14C63.3418 13.5807 62.3574 13.1432 60.9355 12.6875C59.5137 12.2227 58.388 11.7669 57.5586 11.3203C55.2982 10.099 54.168 8.45378 54.168 6.38477C54.168 5.30924 54.4688 4.35221 55.0703 3.51367C55.681 2.66602 56.5514 2.00521 57.6816 1.53125C58.821 1.05729 60.097 0.820312 61.5098 0.820312C62.9316 0.820312 64.1986 1.08008 65.3105 1.59961C66.4225 2.11003 67.2839 2.83464 67.8945 3.77344C68.5143 4.71224 68.8242 5.77865 68.8242 6.97266H64.7227C64.7227 6.0612 64.4355 5.35482 63.8613 4.85352C63.2871 4.3431 62.4805 4.08789 61.4414 4.08789C60.4388 4.08789 59.6595 4.30208 59.1035 4.73047C58.5475 5.14974 58.2695 5.70573 58.2695 6.39844C58.2695 7.04557 58.5931 7.58789 59.2402 8.02539C59.8965 8.46289 60.8581 8.87305 62.125 9.25586C64.4583 9.95768 66.1582 10.8281 67.2246 11.8672C68.291 12.9062 68.8242 14.2005 68.8242 15.75C68.8242 17.4727 68.1725 18.8262 66.8691 19.8105C65.5658 20.7858 63.8112 21.2734 61.6055 21.2734C60.0742 21.2734 58.6797 20.9954 57.4219 20.4395C56.1641 19.8743 55.2025 19.1042 54.5371 18.1289C53.8809 17.1536 53.5527 16.0234 53.5527 14.7383H57.668C57.668 16.9349 58.9805 18.0332 61.6055 18.0332C62.5807 18.0332 63.3418 17.8372 63.8887 17.4453C64.4355 17.0443 64.709 16.4883 64.709 15.7773ZM81.9355 15.7773C81.9355 15.0026 81.6621 14.4102 81.1152 14C80.5684 13.5807 79.584 13.1432 78.1621 12.6875C76.7402 12.2227 75.6146 11.7669 74.7852 11.3203C72.5247 10.099 71.3945 8.45378 71.3945 6.38477C71.3945 5.30924 71.6953 4.35221 72.2969 3.51367C72.9076 2.66602 73.778 2.00521 74.9082 1.53125C76.0475 1.05729 77.3236 0.820312 78.7363 0.820312C80.1582 0.820312 81.4251 1.08008 82.5371 1.59961C83.6491 2.11003 84.5104 2.83464 85.1211 3.77344C85.7409 4.71224 86.0508 5.77865 86.0508 6.97266H81.9492C81.9492 6.0612 81.6621 5.35482 81.0879 4.85352C80.5137 4.3431 79.707 4.08789 78.668 4.08789C77.6654 4.08789 76.8861 4.30208 76.3301 4.73047C75.7741 5.14974 75.4961 5.70573 75.4961 6.39844C75.4961 7.04557 75.8197 7.58789 76.4668 8.02539C77.123 8.46289 78.0846 8.87305 79.3516 9.25586C81.6849 9.95768 83.3848 10.8281 84.4512 11.8672C85.5176 12.9062 86.0508 14.2005 86.0508 15.75C86.0508 17.4727 85.3991 18.8262 84.0957 19.8105C82.7923 20.7858 81.0378 21.2734 78.832 21.2734C77.3008 21.2734 75.9062 20.9954 74.6484 20.4395C73.3906 19.8743 72.429 19.1042 71.7637 18.1289C71.1074 17.1536 70.7793 16.0234 70.7793 14.7383H74.8945C74.8945 16.9349 76.207 18.0332 78.832 18.0332C79.8073 18.0332 80.5684 17.8372 81.1152 17.4453C81.6621 17.0443 81.9355 16.4883 81.9355 15.7773ZM93.2012 21H89.0996V1.09375H93.2012V21ZM97.0156 21V1.09375H103.988C106.404 1.09375 108.236 1.55859 109.484 2.48828C110.733 3.40885 111.357 4.76237 111.357 6.54883C111.357 7.52409 111.107 8.38542 110.605 9.13281C110.104 9.87109 109.407 10.4134 108.514 10.7598C109.535 11.015 110.337 11.5299 110.92 12.3047C111.512 13.0794 111.809 14.0273 111.809 15.1484C111.809 17.0625 111.198 18.5117 109.977 19.4961C108.755 20.4805 107.014 20.9818 104.754 21H97.0156ZM101.117 12.332V17.7051H104.631C105.597 17.7051 106.349 17.4772 106.887 17.0215C107.434 16.5566 107.707 15.9186 107.707 15.1074C107.707 13.2845 106.764 12.3594 104.877 12.332H101.117ZM101.117 9.43359H104.152C106.221 9.39714 107.256 8.57227 107.256 6.95898C107.256 6.05664 106.992 5.40951 106.463 5.01758C105.943 4.61654 105.118 4.41602 103.988 4.41602H101.117V9.43359ZM119.26 21H115.158V1.09375H119.26V21ZM127.176 17.7051H135.885V21H123.074V1.09375H127.176V17.7051ZM142.611 21H138.51V1.09375H142.611V21ZM146.426 21V1.09375H152.551C154.301 1.09375 155.864 1.49023 157.24 2.2832C158.626 3.06706 159.706 4.18815 160.48 5.64648C161.255 7.0957 161.643 8.74544 161.643 10.5957V11.5117C161.643 13.362 161.26 15.0072 160.494 16.4473C159.738 17.8874 158.667 19.0039 157.281 19.7969C155.896 20.5898 154.333 20.9909 152.592 21H146.426ZM150.527 4.41602V17.7051H152.51C154.114 17.7051 155.34 17.181 156.188 16.1328C157.035 15.0846 157.468 13.5853 157.486 11.6348V10.582C157.486 8.55859 157.067 7.02734 156.229 5.98828C155.39 4.9401 154.164 4.41602 152.551 4.41602H150.527ZM175.574 16.8984H168.383L167.016 21H162.654L170.064 1.09375H173.865L181.316 21H176.955L175.574 16.8984ZM169.49 13.5762H174.467L171.965 6.125L169.49 13.5762ZM183.176 21V1.09375H189.301C191.051 1.09375 192.614 1.49023 193.99 2.2832C195.376 3.06706 196.456 4.18815 197.23 5.64648C198.005 7.0957 198.393 8.74544 198.393 10.5957V11.5117C198.393 13.362 198.01 15.0072 197.244 16.4473C196.488 17.8874 195.417 19.0039 194.031 19.7969C192.646 20.5898 191.083 20.9909 189.342 21H183.176ZM187.277 4.41602V17.7051H189.26C190.864 17.7051 192.09 17.181 192.938 16.1328C193.785 15.0846 194.218 13.5853 194.236 11.6348V10.582C194.236 8.55859 193.817 7.02734 192.979 5.98828C192.14 4.9401 190.914 4.41602 189.301 4.41602H187.277ZM213.363 12.373H205.488V17.7051H214.73V21H201.387V1.09375H214.703V4.41602H205.488V9.16016H213.363V12.373ZM217.082 19.0586C217.082 18.4297 217.292 17.9193 217.711 17.5273C218.139 17.1354 218.673 16.9395 219.311 16.9395C219.958 16.9395 220.491 17.1354 220.91 17.5273C221.339 17.9193 221.553 18.4297 221.553 19.0586C221.553 19.6784 221.343 20.1842 220.924 20.5762C220.505 20.959 219.967 21.1504 219.311 21.1504C218.663 21.1504 218.13 20.959 217.711 20.5762C217.292 20.1842 217.082 19.6784 217.082 19.0586ZM240.912 14.3691C240.757 16.5111 239.964 18.1973 238.533 19.4277C237.111 20.6582 235.234 21.2734 232.9 21.2734C230.348 21.2734 228.339 20.4167 226.871 18.7031C225.413 16.9805 224.684 14.6198 224.684 11.6211V10.4043C224.684 8.49023 225.021 6.80404 225.695 5.3457C226.37 3.88737 227.331 2.77083 228.58 1.99609C229.838 1.21224 231.296 0.820312 232.955 0.820312C235.252 0.820312 237.102 1.43555 238.506 2.66602C239.91 3.89648 240.721 5.6237 240.939 7.84766H236.838C236.738 6.5625 236.378 5.63281 235.758 5.05859C235.147 4.47526 234.213 4.18359 232.955 4.18359C231.588 4.18359 230.562 4.67578 229.879 5.66016C229.204 6.63542 228.858 8.15299 228.84 10.2129V11.7168C228.84 13.8678 229.163 15.4401 229.811 16.4336C230.467 17.4271 231.497 17.9238 232.9 17.9238C234.167 17.9238 235.111 17.6367 235.73 17.0625C236.359 16.4792 236.719 15.5814 236.811 14.3691H240.912ZM259.957 11.498C259.957 13.4577 259.611 15.1758 258.918 16.6523C258.225 18.1289 257.232 19.2682 255.938 20.0703C254.652 20.8724 253.176 21.2734 251.508 21.2734C249.858 21.2734 248.386 20.877 247.092 20.084C245.798 19.291 244.795 18.1608 244.084 16.6934C243.373 15.2168 243.013 13.5215 243.004 11.6074V10.623C243.004 8.66341 243.355 6.94076 244.057 5.45508C244.768 3.96029 245.766 2.81641 247.051 2.02344C248.345 1.22135 249.822 0.820312 251.48 0.820312C253.139 0.820312 254.611 1.22135 255.896 2.02344C257.191 2.81641 258.189 3.96029 258.891 5.45508C259.602 6.94076 259.957 8.65885 259.957 10.6094V11.498ZM255.801 10.5957C255.801 8.50846 255.427 6.92253 254.68 5.83789C253.932 4.75326 252.866 4.21094 251.48 4.21094C250.104 4.21094 249.042 4.7487 248.295 5.82422C247.548 6.89062 247.169 8.45833 247.16 10.5273V11.498C247.16 13.5306 247.534 15.1074 248.281 16.2285C249.029 17.3496 250.104 17.9102 251.508 17.9102C252.884 17.9102 253.941 17.3724 254.68 16.2969C255.418 15.2122 255.792 13.6354 255.801 11.5664V10.5957ZM268.297 1.09375L273.41 15.5312L278.496 1.09375H283.883V21H279.768V15.5586L280.178 6.16602L274.805 21H271.988L266.629 6.17969L267.039 15.5586V21H262.938V1.09375H268.297Z" fill="white" />
</svg>