<svg width="1172" height="89" viewBox="0 0 1172 89" fill="none" xmlns="http://www.w3.org/2000/svg">
<path d="M1 31.415C14.7995 34.2972 40.4271 40.0615 67.0404 45.8258C93.6537 51.5901 119.281 57.3545 145.895 68.8831C172.508 80.4117 198.136 97.7047 224.749 80.4117C251.362 63.1188 276.99 11.2399 303.603 2.59343C330.217 -6.05305 355.844 28.5329 382.457 51.5901C409.071 74.6474 434.698 86.1761 461.312 68.8831C487.925 51.5901 513.553 5.47559 540.166 5.47559C566.779 5.47559 592.407 51.5901 619.02 57.3545C645.634 63.1188 671.261 28.5329 697.875 31.415C724.488 34.2972 750.115 74.6474 776.729 80.4117C803.342 86.1761 828.97 57.3545 855.583 54.4723C882.196 51.5901 907.824 74.6474 934.437 68.8831C961.051 63.1188 986.678 28.5329 1013.29 31.415C1039.9 34.2972 1065.53 74.6474 1092.15 80.4117C1118.76 86.1761 1144.39 57.3545 1158.19 42.9437L1171 28.5329" stroke="#333333" stroke-opacity="0.3" stroke-width="2"/>
</svg>
